<svg width="100%" height="100%" id="svg" viewBox="0 0 1440 500" xmlns="http://www.w3.org/2000/svg" class="transition duration-300 ease-in-out delay-150"><defs><linearGradient id="gradient" x1="0%" y1="49%" x2="100%" y2="51%"><stop offset="5%" stop-color="#0001fc88"></stop><stop offset="95%" stop-color="#0693e388"></stop></linearGradient></defs><path d="M 0,500 C 0,500 0,166 0,166 C 48.39917554105118,160.58399175541052 96.79835108210236,155.16798351082102 168,163 C 239.20164891789764,170.83201648917898 333.2057712126417,191.9120577121264 417,199 C 500.7942287873583,206.0879422878736 574.3785640673309,199.1837856406733 645,183 C 715.6214359326691,166.8162143593267 783.2799725180349,141.35279972518035 850,146 C 916.7200274819651,150.64720027481965 982.5015458605292,185.40501545860528 1039,198 C 1095.4984541394708,210.59498454139472 1142.7138440398487,201.0271384403985 1208,192 C 1273.2861559601513,182.9728615596015 1356.6430779800758,174.48643077980074 1440,166 C 1440,166 1440,500 1440,500 Z" stroke="none" stroke-width="0" fill="url(#gradient)" class="transition-all duration-300 ease-in-out delay-150 path-0"></path><defs><linearGradient id="gradient" x1="0%" y1="49%" x2="100%" y2="51%"><stop offset="5%" stop-color="#0001fcff"></stop><stop offset="95%" stop-color="#0693e3ff"></stop></linearGradient></defs><path d="M 0,500 C 0,500 0,333 0,333 C 79.89350738577807,292.8996908278942 159.78701477155613,252.79938165578835 226,274 C 292.21298522844387,295.20061834421165 344.7454482995535,377.7021642047407 402,381 C 459.2545517004465,384.2978357952593 521.2311920302301,308.39196152524903 581,273 C 640.7688079697699,237.60803847475097 698.3297835795262,242.72998969426317 784,271 C 869.6702164204738,299.27001030573683 983.449673651666,350.68807969769836 1060,368 C 1136.550326348334,385.31192030230164 1175.8715218138097,368.51769151494335 1233,357 C 1290.1284781861903,345.48230848505665 1365.0642390930952,339.2411542425283 1440,333 C 1440,333 1440,500 1440,500 Z" stroke="none" stroke-width="0" fill="url(#gradient)" class="transition-all duration-300 ease-in-out delay-150 path-1"></path></svg>